<?xml version="1.0" encoding="UTF-8" standalone="no"?>
<!-- Generator: Adobe Illustrator 19.1.0, SVG Export Plug-In . SVG Version: 6.00 Build 0)  -->

<svg
   version="1.1"
   id="Capa_1"
   x="0px"
   y="0px"
   viewBox="0 0 32.000001 32.000001"
   xml:space="preserve"
   sodipodi:docname="favorite.svg"
   width="32"
   height="32"
   inkscape:version="1.1.1 (3bf5ae0d25, 2021-09-20)"
   xmlns:inkscape="http://www.inkscape.org/namespaces/inkscape"
   xmlns:sodipodi="http://sodipodi.sourceforge.net/DTD/sodipodi-0.dtd"
   xmlns="http://www.w3.org/2000/svg"
   xmlns:svg="http://www.w3.org/2000/svg"><defs
   id="defs39" /><sodipodi:namedview
   id="namedview37"
   pagecolor="#ffffff"
   bordercolor="#666666"
   borderopacity="1.0"
   inkscape:pageshadow="2"
   inkscape:pageopacity="0.0"
   inkscape:pagecheckerboard="true"
   showgrid="false"
   inkscape:zoom="6.885718"
   inkscape:cx="100.1348"
   inkscape:cy="39.138983"
   inkscape:window-width="2400"
   inkscape:window-height="1271"
   inkscape:window-x="-9"
   inkscape:window-y="-9"
   inkscape:window-maximized="1"
   inkscape:current-layer="Capa_1" />

<g
   id="g6">
</g>
<g
   id="g8">
</g>
<g
   id="g10">
</g>
<g
   id="g12">
</g>
<g
   id="g14">
</g>
<g
   id="g16">
</g>
<g
   id="g18">
</g>
<g
   id="g20">
</g>
<g
   id="g22">
</g>
<g
   id="g24">
</g>
<g
   id="g26">
</g>
<g
   id="g28">
</g>
<g
   id="g30">
</g>
<g
   id="g32">
</g>
<g
   id="g34">
</g>
<path
   style="fill:#f70000;fill-opacity:1;stroke:#fb0000;stroke-width:1.379;stroke-miterlimit:4;stroke-dasharray:none;stroke-opacity:1"
   d="M 8.7677361,20.523594 C 3.7206712,15.454162 2.6746541,14.326774 2.3312599,13.58642 0.79301776,10.269992 2.0927523,6.5491285 5.3521534,4.9382451 6.5182656,4.3619213 6.6130177,4.3423904 8.2278549,4.3454884 c 2.1642221,0.00415 3.0069601,0.3660134 4.7331251,2.0323455 1.168278,1.1277828 1.708853,1.5251303 2.074874,1.5251303 0.0957,0 0.788608,-0.5789243 1.539797,-1.2864982 0.91531,-0.8621661 1.709555,-1.4493844 2.408007,-1.7803396 0.95487,-0.4524564 1.174828,-0.4933737 2.624733,-0.4882584 1.271271,0.00449 1.762571,0.077156 2.497948,0.3694857 1.053936,0.4189642 2.578651,1.7448026 3.170836,2.7572455 1.311542,2.2423121 1.144185,5.0670468 -0.425307,7.1785428 -0.701338,0.943538 -11.682248,11.923607 -11.924519,11.923607 -0.07324,0 -2.845067,-2.723919 -6.1596129,-6.053155 z"
   id="path983" /></svg>
