<?xml version="1.0" encoding="UTF-8" standalone="no"?>
<!-- Generator: Adobe Illustrator 19.0.0, SVG Export Plug-In . SVG Version: 6.00 Build 0)  -->

<svg
   version="1.1"
   id="Layer_1"
   x="0px"
   y="0px"
   viewBox="0 0 32 32"
   xml:space="preserve"
   sodipodi:docname="vuilbak.svg"
   width="32"
   height="32"
   inkscape:version="1.1.1 (3bf5ae0d25, 2021-09-20)"
   xmlns:inkscape="http://www.inkscape.org/namespaces/inkscape"
   xmlns:sodipodi="http://sodipodi.sourceforge.net/DTD/sodipodi-0.dtd"
   xmlns="http://www.w3.org/2000/svg"
   xmlns:svg="http://www.w3.org/2000/svg"><defs
   id="defs59" /><sodipodi:namedview
   id="namedview57"
   pagecolor="#ffffff"
   bordercolor="#666666"
   borderopacity="1.0"
   inkscape:pageshadow="2"
   inkscape:pageopacity="0.0"
   inkscape:pagecheckerboard="true"
   showgrid="false"
   inkscape:snap-global="false"
   showguides="true"
   inkscape:guide-bbox="true"
   inkscape:zoom="17.942835"
   inkscape:cx="34.526317"
   inkscape:cy="18.252412"
   inkscape:window-width="2400"
   inkscape:window-height="1271"
   inkscape:window-x="-9"
   inkscape:window-y="-9"
   inkscape:window-maximized="1"
   inkscape:current-layer="Layer_1" />


<g
   id="g18"
   style="fill:#006300;fill-opacity:1"
   transform="matrix(0.01896442,0,0,0.0107703,9.0009627,1.6464301)">
	<g
   id="g16"
   style="fill:#006300;fill-opacity:1">
		<path
   d="m 256,200.348 c -9.22,0 -16.696,7.475 -16.696,16.696 v 211.478 c 0,9.22 7.475,16.696 16.696,16.696 9.22,0 16.696,-7.475 16.696,-16.696 V 217.043 c 0,-9.22 -7.476,-16.695 -16.696,-16.695 z"
   id="path14"
   style="fill:#006300;fill-opacity:1" />
	</g>
</g>
<g
   id="g24"
   style="fill:#006300;fill-opacity:1"
   transform="matrix(0,0.01886285,-0.01596425,0,20.648273,-2.644298)">
	<g
   id="g22"
   style="fill:#006300;fill-opacity:1">
		<path
   d="m 356.174,200.348 c -9.22,0 -16.696,7.475 -16.696,16.696 v 211.478 c 0,9.22 7.475,16.696 16.696,16.696 9.22,0 16.696,-7.475 16.696,-16.696 V 217.043 c 0,-9.22 -7.476,-16.695 -16.696,-16.695 z"
   id="path20"
   style="fill:#006300;fill-opacity:1" />
	</g>
</g>
<g
   id="g26">
</g>
<g
   id="g28">
</g>
<g
   id="g30">
</g>
<g
   id="g32">
</g>
<g
   id="g34">
</g>
<g
   id="g36">
</g>
<g
   id="g38">
</g>
<g
   id="g40">
</g>
<g
   id="g42">
</g>
<g
   id="g44">
</g>
<g
   id="g46">
</g>
<g
   id="g48">
</g>
<g
   id="g50">
</g>
<g
   id="g52">
</g>
<g
   id="g54">
</g>
<path
   style="fill:#006300;fill-opacity:1;stroke:none;stroke-width:0.00575369;stroke-miterlimit:4;stroke-dasharray:none;stroke-opacity:1"
   d="M 7.0935961,6.817734 V 5.9113301 h 8.9852219 8.985221 V 6.817734 7.7241379 H 16.078818 7.0935961 Z"
   id="path1439" /><path
   style="fill:#006300;fill-opacity:1;stroke:none;stroke-width:0.00575369;stroke-miterlimit:4;stroke-dasharray:none;stroke-opacity:1"
   d="M 23.293442,17.008909 V 8.2995501 H 15.923983 8.5545251 v 8.7093589 8.70936 h 7.3694579 7.369459 z m -3.443246,6.742839 c -0.47836,-0.291677 -0.456098,0.0049 -0.482442,-6.427568 -0.01332,-3.251231 -0.001,-6.104507 0.02731,-6.340611 0.04113,-0.34269 0.104041,-0.481803 0.311894,-0.689656 0.227858,-0.227857 0.311558,-0.260373 0.670226,-0.260373 0.361016,0 0.441784,0.03193 0.677833,0.26798 l 0.26798,0.26798 v 6.317215 c 0,6.905913 0.01755,6.639398 -0.454193,6.895365 -0.300764,0.163193 -0.721782,0.150657 -1.018609,-0.03033 z m -4.283472,0.03415 c -0.489921,-0.253348 -0.470327,0.03408 -0.470327,-6.899185 v -6.317215 l 0.26798,-0.26798 c 0.233632,-0.233632 0.318729,-0.26798 0.663904,-0.26798 0.483673,0 0.834849,0.254932 0.956996,0.694721 0.121903,0.438908 0.101856,12.186048 -0.02141,12.543929 -0.183223,0.531966 -0.872061,0.785243 -1.397146,0.51371 z m -4.836263,6.1e-5 c -0.549535,-0.260772 -0.520763,0.115628 -0.520763,-6.812831 0,-6.737668 -0.01317,-6.519357 0.411175,-6.816579 0.220851,-0.154689 0.788089,-0.1590269 1.079647,-0.0083 0.494879,0.255912 0.479621,0.04034 0.479621,6.776536 0,6.741603 0.01631,6.513587 -0.487868,6.820975 -0.311315,0.189803 -0.619352,0.202664 -0.961812,0.04016 z"
   id="path1478" /><g
   id="g1601"
   style="fill:#006300;fill-opacity:1"
   transform="matrix(0.01896442,0,0,0.0107703,12.283441,1.6464297)">
	<g
   id="g1599"
   style="fill:#006300;fill-opacity:1">
		<path
   d="m 256,200.348 c -9.22,0 -16.696,7.475 -16.696,16.696 v 211.478 c 0,9.22 7.475,16.696 16.696,16.696 9.22,0 16.696,-7.475 16.696,-16.696 V 217.043 c 0,-9.22 -7.476,-16.695 -16.696,-16.695 z"
   id="path1597"
   style="fill:#006300;fill-opacity:1" />
	</g>
</g></svg>
